<svg aria-hidden="true" style="position: absolute; width: 0; height: 0; overflow: hidden;" version="1.1" xmlns="http://www.w3.org/2000/svg" xmlns:xlink="http://www.w3.org/1999/xlink">
<defs>
<symbol id="arrow" viewBox="0 0 32 32">
<path d="M2 16c0-0.265 0.105-0.519 0.293-0.707s0.442-0.293 0.707-0.293h23.586l-6.294-6.292c-0.188-0.188-0.293-0.442-0.293-0.708s0.105-0.52 0.293-0.708c0.188-0.188 0.442-0.293 0.708-0.293s0.52 0.106 0.708 0.293l8 8c0.093 0.093 0.167 0.203 0.217 0.325s0.076 0.252 0.076 0.383c0 0.132-0.026 0.262-0.076 0.383s-0.124 0.232-0.217 0.325l-8 8c-0.188 0.188-0.442 0.293-0.708 0.293s-0.52-0.105-0.708-0.293c-0.188-0.188-0.293-0.442-0.293-0.708s0.105-0.52 0.293-0.708l6.294-6.292h-23.586c-0.265 0-0.52-0.105-0.707-0.293s-0.293-0.442-0.293-0.707z"></path>
</symbol>
<symbol id="check" viewBox="0 0 32 32">
<path stroke-linejoin="round" stroke-linecap="round" stroke-miterlimit="4" stroke-width="2.6667" d="M5.333 16l8 8 13.333-16"></path>
</symbol>
<symbol id="clean" viewBox="0 0 32 32">
<path d="M22.653 6.667l0.84 1.827 1.827 0.84-1.827 0.84-0.84 1.827-0.84-1.827-1.827-0.84 1.827-0.84 0.84-1.827zM26.667 18.667c1.467 0 2.667-1.2 2.667-2.667s-2.667-5.333-2.667-5.333-2.667 3.867-2.667 5.333c0 1.467 1.2 2.667 2.667 2.667zM14.667 8.133v-2.8h2.667c0.76 0 1.467 0.227 2.067 0.6l1.907-1.907c-1.139-0.878-2.535-1.356-3.973-1.36h-7.333v2.667h2v2.813c-2.373 0.493-4.267 2.24-5 4.52h2.88c0.707-1.187 1.973-2 3.453-2 2.16 0 3.92 1.72 3.987 3.867l2.68 1v-0.867c0-1.537-0.53-3.027-1.502-4.217s-2.325-2.009-3.831-2.316zM29.333 25.333v1.333l-10.667 3.333-9.333-2.587v1.92h-8v-14.667h10.627l8.213 3.067c0.732 0.276 1.362 0.768 1.808 1.411s0.684 1.406 0.686 2.189h2.667c2.213 0 4 1.787 4 4zM6.667 26.667v-9.333h-2.667v9.333h2.667zM26.533 24.76c-0.213-0.44-0.68-0.747-1.2-0.747h-7.133c-0.72 0-1.427-0.12-2.107-0.347l-3.173-1.053 0.84-2.533 3.173 1.053c0.413 0.133 3.067 0.2 3.067 0.2 0-0.493-0.307-0.933-0.76-1.107l-7.76-2.893h-2.147v7.307l9.293 2.573 7.907-2.453z"></path>
</symbol>
<symbol id="facebook" viewBox="0 0 32 32">
<path d="M20.16 7.093h2.507v-4.24c-1.214-0.126-2.433-0.188-3.653-0.187-3.627 0-6.107 2.213-6.107 6.267v3.493h-4.093v4.747h4.093v12.16h4.907v-12.16h4.080l0.613-4.747h-4.693v-3.027c0-1.4 0.373-2.307 2.347-2.307z"></path>
</symbol>
<symbol id="instagram" viewBox="0 0 32 32">
<path d="M23.12 7.28c-0.316 0-0.626 0.094-0.889 0.27s-0.468 0.426-0.589 0.718c-0.121 0.292-0.153 0.614-0.091 0.924s0.214 0.595 0.438 0.819c0.224 0.224 0.509 0.376 0.819 0.438s0.632 0.030 0.924-0.091c0.292-0.121 0.542-0.326 0.718-0.589s0.27-0.572 0.27-0.889c0-0.424-0.169-0.831-0.469-1.131s-0.707-0.469-1.131-0.469zM29.253 10.507c-0.026-1.106-0.233-2.201-0.613-3.24-0.339-0.889-0.867-1.694-1.547-2.36-0.66-0.683-1.467-1.208-2.36-1.533-1.036-0.392-2.132-0.604-3.24-0.627-1.413-0.080-1.867-0.080-5.493-0.080s-4.080 0-5.493 0.080c-1.108 0.023-2.204 0.235-3.24 0.627-0.891 0.329-1.697 0.853-2.36 1.533-0.683 0.66-1.208 1.467-1.533 2.36-0.392 1.036-0.604 2.132-0.627 3.24-0.080 1.413-0.080 1.867-0.080 5.493s0 4.080 0.080 5.493c0.023 1.108 0.235 2.204 0.627 3.24 0.326 0.893 0.85 1.7 1.533 2.36 0.663 0.681 1.469 1.205 2.36 1.533 1.036 0.392 2.132 0.604 3.24 0.627 1.413 0.080 1.867 0.080 5.493 0.080s4.080 0 5.493-0.080c1.108-0.023 2.204-0.235 3.24-0.627 0.893-0.326 1.7-0.85 2.36-1.533 0.683-0.663 1.211-1.469 1.547-2.36 0.38-1.039 0.587-2.134 0.613-3.24 0-1.413 0.080-1.867 0.080-5.493s0-4.080-0.080-5.493zM26.853 21.333c-0.010 0.846-0.163 1.685-0.453 2.48-0.213 0.58-0.555 1.105-1 1.533-0.433 0.441-0.956 0.782-1.533 1-0.795 0.29-1.634 0.444-2.48 0.453-1.333 0.067-1.827 0.080-5.333 0.080s-4 0-5.333-0.080c-0.879 0.016-1.754-0.119-2.587-0.4-0.552-0.229-1.052-0.57-1.467-1-0.443-0.428-0.78-0.953-0.987-1.533-0.326-0.806-0.506-1.664-0.533-2.533 0-1.333-0.080-1.827-0.080-5.333s0-4 0.080-5.333c0.006-0.865 0.164-1.723 0.467-2.533 0.235-0.563 0.595-1.064 1.053-1.467 0.405-0.458 0.906-0.823 1.467-1.067 0.813-0.293 1.669-0.447 2.533-0.453 1.333 0 1.827-0.080 5.333-0.080s4 0 5.333 0.080c0.846 0.010 1.685 0.163 2.48 0.453 0.606 0.225 1.15 0.59 1.587 1.067 0.437 0.41 0.778 0.91 1 1.467 0.296 0.812 0.45 1.669 0.453 2.533 0.067 1.333 0.080 1.827 0.080 5.333s-0.013 4-0.080 5.333zM16 9.16c-1.352 0.003-2.673 0.406-3.796 1.159s-1.998 1.822-2.513 3.072c-0.516 1.25-0.649 2.625-0.384 3.951s0.918 2.543 1.875 3.499c0.957 0.955 2.176 1.605 3.502 1.868s2.701 0.127 3.95-0.391c1.249-0.518 2.317-1.395 3.067-2.519s1.152-2.446 1.152-3.799c0.002-0.9-0.174-1.791-0.518-2.623s-0.849-1.587-1.486-2.223-1.393-1.139-2.225-1.482c-0.832-0.342-1.724-0.517-2.624-0.513zM16 20.44c-0.878 0-1.737-0.26-2.467-0.748s-1.299-1.181-1.635-1.993c-0.336-0.811-0.424-1.704-0.253-2.565s0.594-1.652 1.215-2.273c0.621-0.621 1.412-1.044 2.273-1.215s1.754-0.083 2.565 0.253c0.811 0.336 1.505 0.905 1.993 1.635s0.748 1.589 0.748 2.467c0 0.583-0.115 1.16-0.338 1.699s-0.55 1.028-0.962 1.441c-0.412 0.412-0.902 0.739-1.441 0.962s-1.116 0.338-1.699 0.338z"></path>
</symbol>
<symbol id="linkedin" viewBox="0 0 32 32">
<path d="M27.293 2.667h-22.587c-0.254-0.004-0.506 0.043-0.742 0.137s-0.451 0.233-0.633 0.41c-0.182 0.177-0.327 0.388-0.428 0.621s-0.154 0.484-0.157 0.738v22.853c0.003 0.254 0.057 0.505 0.157 0.738s0.246 0.444 0.428 0.621c0.182 0.177 0.397 0.317 0.633 0.41s0.488 0.14 0.742 0.137h22.587c0.254 0.003 0.506-0.043 0.742-0.137s0.451-0.233 0.633-0.41c0.182-0.177 0.327-0.388 0.428-0.621s0.154-0.484 0.157-0.738v-22.853c-0.003-0.254-0.057-0.505-0.157-0.738s-0.246-0.444-0.428-0.621c-0.182-0.177-0.397-0.317-0.633-0.41s-0.488-0.14-0.742-0.137zM10.787 24.987h-4v-12h4v12zM8.787 11.307c-0.552 0-1.081-0.219-1.471-0.609s-0.609-0.919-0.609-1.471c0-0.552 0.219-1.081 0.609-1.471s0.919-0.609 1.471-0.609c0.293-0.033 0.59-0.004 0.87 0.085s0.54 0.237 0.76 0.433c0.22 0.196 0.396 0.437 0.516 0.706s0.183 0.561 0.183 0.855c0 0.295-0.062 0.586-0.183 0.855s-0.296 0.51-0.516 0.706c-0.22 0.196-0.479 0.344-0.76 0.433s-0.578 0.118-0.87 0.085zM25.213 24.987h-4v-6.44c0-1.613-0.573-2.667-2.027-2.667-0.45 0.003-0.888 0.144-1.255 0.404s-0.646 0.626-0.798 1.049c-0.104 0.313-0.15 0.643-0.133 0.973v6.667h-4c0 0 0-10.907 0-12h4v1.693c0.363-0.631 0.892-1.15 1.529-1.502s1.357-0.524 2.085-0.498c2.667 0 4.6 1.72 4.6 5.413v6.907z"></path>
</symbol>
<symbol id="network" viewBox="0 0 32 32">
<path d="M21 28c1.105 0 2-0.895 2-2s-0.895-2-2-2c-1.105 0-2 0.895-2 2s0.895 2 2 2z"></path>
<path d="M21 8c1.105 0 2-0.895 2-2s-0.895-2-2-2c-1.105 0-2 0.895-2 2s0.895 2 2 2z"></path>
<path d="M4 18c1.105 0 2-0.895 2-2s-0.895-2-2-2c-1.105 0-2 0.895-2 2s0.895 2 2 2z"></path>
<path d="M28 12c-0.884 0.003-1.743 0.299-2.441 0.841s-1.197 1.302-1.417 2.159h-4.284c-0.142-0.564-0.406-1.090-0.773-1.54s-0.83-0.815-1.353-1.067c-0.524-0.252-1.097-0.386-1.678-0.392s-1.157 0.116-1.686 0.357l-3.177-3.97c0.523-0.686 0.807-1.524 0.81-2.387 0-0.791-0.235-1.564-0.674-2.222s-1.064-1.171-1.795-1.473c-0.731-0.303-1.535-0.382-2.311-0.228s-1.489 0.535-2.048 1.095c-0.559 0.559-0.94 1.272-1.095 2.048s-0.075 1.58 0.228 2.311c0.303 0.731 0.815 1.356 1.473 1.795s1.431 0.674 2.222 0.674c0.564-0.001 1.121-0.123 1.634-0.357l3.176 3.97c-0.525 0.685-0.81 1.524-0.81 2.387s0.285 1.702 0.81 2.387l-3.176 3.97c-0.513-0.234-1.070-0.356-1.634-0.357-0.791 0-1.564 0.235-2.222 0.674s-1.171 1.064-1.473 1.795-0.382 1.535-0.228 2.311c0.154 0.776 0.535 1.489 1.095 2.048s1.272 0.94 2.048 1.095c0.776 0.154 1.58 0.075 2.311-0.228s1.356-0.815 1.795-1.473c0.44-0.658 0.674-1.431 0.674-2.222-0.003-0.863-0.287-1.701-0.81-2.387l3.176-3.97c0.529 0.241 1.105 0.363 1.686 0.357s1.155-0.14 1.679-0.392c0.524-0.252 0.986-0.617 1.354-1.067s0.631-0.977 0.773-1.541h4.284c0.188 0.723 0.575 1.378 1.117 1.891s1.217 0.865 1.949 1.014c0.732 0.149 1.49 0.090 2.19-0.17s1.313-0.712 1.769-1.303c0.456-0.591 0.737-1.298 0.812-2.041s-0.061-1.492-0.391-2.162c-0.33-0.67-0.841-1.234-1.475-1.628s-1.366-0.602-2.113-0.601zM6 6c0-0.396 0.117-0.782 0.337-1.111s0.532-0.585 0.898-0.737c0.365-0.151 0.768-0.191 1.156-0.114s0.744 0.268 1.024 0.547c0.28 0.28 0.47 0.636 0.547 1.024s0.038 0.79-0.114 1.156-0.408 0.678-0.737 0.898c-0.329 0.22-0.716 0.337-1.111 0.337-0.53-0.001-1.039-0.211-1.414-0.586s-0.586-0.883-0.586-1.414zM8 28c-0.396 0-0.782-0.117-1.111-0.337s-0.585-0.532-0.737-0.898c-0.151-0.365-0.191-0.768-0.114-1.156s0.268-0.744 0.547-1.024c0.28-0.28 0.636-0.47 1.024-0.547s0.79-0.038 1.156 0.114 0.678 0.408 0.898 0.737c0.22 0.329 0.337 0.716 0.337 1.111-0.001 0.53-0.211 1.039-0.586 1.414s-0.883 0.586-1.414 0.586zM16 18c-0.396 0-0.782-0.117-1.111-0.337s-0.585-0.532-0.737-0.898c-0.151-0.365-0.191-0.768-0.114-1.156s0.268-0.744 0.547-1.024c0.28-0.28 0.636-0.47 1.024-0.547s0.79-0.038 1.156 0.114 0.678 0.408 0.898 0.737c0.22 0.329 0.337 0.716 0.337 1.111-0.001 0.53-0.211 1.039-0.586 1.414s-0.883 0.586-1.414 0.586zM28 18c-0.396 0-0.782-0.117-1.111-0.337s-0.585-0.532-0.737-0.898c-0.151-0.365-0.191-0.768-0.114-1.156s0.268-0.744 0.547-1.024c0.28-0.28 0.636-0.47 1.024-0.547s0.79-0.038 1.156 0.114 0.678 0.408 0.898 0.737c0.22 0.329 0.337 0.716 0.337 1.111-0.001 0.53-0.211 1.039-0.586 1.414s-0.883 0.586-1.414 0.586z"></path>
</symbol>
<symbol id="premium" viewBox="0 0 32 32">
<path stroke-linejoin="miter" stroke-linecap="round" stroke-miterlimit="4" stroke-width="1.6" d="M16.76 3.75l-0.76-2.311-3.604 10.957-10.957 3.604 10.957 3.604 3.604 10.957 3.604-10.957 10.957-3.604-10.957-3.604-2.844-8.646z"></path>
</symbol>
<symbol id="price" viewBox="0 0 32 32">
<path d="M14.667 17.333v-5.333c0-0.733-0.6-1.333-1.333-1.333h-5.333v-2.667h5.333c0.733 0 1.333-0.6 1.333-1.333s-0.6-1.333-1.333-1.333h-2c0-0.733-0.6-1.333-1.333-1.333s-1.333 0.6-1.333 1.333h-2c-0.733 0-1.333 0.6-1.333 1.333v5.333c0 0.733 0.6 1.333 1.333 1.333h5.333v2.667h-5.333c-0.733 0-1.333 0.6-1.333 1.333s0.6 1.333 1.333 1.333h2c0 0.733 0.6 1.333 1.333 1.333s1.333-0.6 1.333-1.333h2c0.733 0 1.333-0.6 1.333-1.333zM25.173 17.627l-6.6 6.6-2.827-2.827c-0.249-0.249-0.587-0.389-0.94-0.389s-0.691 0.14-0.94 0.389c-0.249 0.249-0.389 0.587-0.389 0.94s0.14 0.691 0.389 0.94l3.773 3.773c0.52 0.52 1.36 0.52 1.88 0l7.547-7.547c0.124-0.123 0.222-0.27 0.289-0.431s0.101-0.334 0.101-0.509c0-0.175-0.034-0.348-0.101-0.509s-0.165-0.308-0.289-0.431c-0.533-0.52-1.373-0.52-1.893 0z"></path>
</symbol>
<symbol id="time" viewBox="0 0 32 32">
<path d="M10 11.659c0.463-0.509 1.22-0.992 2.333-0.992 1.536 0 2.525 1.056 2.873 2.215 0.337 1.129 0.133 2.527-0.827 3.491-0.333 0.32-0.686 0.619-1.057 0.893l-0.053 0.041c-0.373 0.288-0.707 0.549-1 0.84-0.34 0.341-0.619 0.713-0.78 1.187h2.844c0.265 0 0.52 0.105 0.707 0.293s0.293 0.442 0.293 0.707-0.105 0.52-0.293 0.707c-0.188 0.188-0.442 0.293-0.707 0.293h-4c-0.265 0-0.52-0.105-0.707-0.293s-0.293-0.442-0.293-0.707c0-1.663 0.699-2.777 1.525-3.601 0.395-0.395 0.824-0.727 1.187-1.008l0.004-0.003c0.381-0.295 0.677-0.524 0.913-0.76 0.363-0.365 0.489-0.967 0.328-1.507-0.153-0.508-0.493-0.788-0.957-0.788-0.471 0-0.713 0.183-0.853 0.337-0.082 0.090-0.149 0.194-0.197 0.305v0.004c-0.082 0.252-0.26 0.462-0.497 0.583s-0.511 0.143-0.763 0.061-0.462-0.26-0.583-0.497c-0.121-0.236-0.143-0.511-0.061-0.763l0.047-0.128c0.137-0.334 0.331-0.643 0.573-0.911h0.001z"></path>
<path d="M17.667 10.667c0.265 0 0.52 0.105 0.707 0.293s0.293 0.442 0.293 0.707v3.667h2v-3.667c0-0.265 0.105-0.52 0.293-0.707s0.442-0.293 0.707-0.293c0.265 0 0.52 0.105 0.707 0.293s0.293 0.442 0.293 0.707v8.627c0 0.265-0.105 0.52-0.293 0.707s-0.442 0.293-0.707 0.293-0.52-0.105-0.707-0.293c-0.188-0.188-0.293-0.442-0.293-0.707v-2.96h-3c-0.265 0-0.52-0.105-0.707-0.293s-0.293-0.442-0.293-0.707v-4.667c0-0.265 0.105-0.52 0.293-0.707s0.442-0.293 0.707-0.293z"></path>
<path d="M29.333 16c0-7.364-5.969-13.333-13.333-13.333s-13.333 5.969-13.333 13.333c0 7.364 5.969 13.333 13.333 13.333s13.333-5.969 13.333-13.333zM4.667 16c0-3.006 1.194-5.888 3.319-8.014s5.008-3.319 8.014-3.319c3.006 0 5.888 1.194 8.014 3.319s3.319 5.008 3.319 8.014c0 3.006-1.194 5.888-3.319 8.014s-5.008 3.319-8.014 3.319c-3.006 0-5.888-1.194-8.014-3.319s-3.319-5.008-3.319-8.014z"></path>
</symbol>
<symbol id="twitter" viewBox="0 0 32 32">
<path d="M29.333 7.733c-1.002 0.435-2.062 0.722-3.147 0.853 1.144-0.684 2.002-1.759 2.413-3.027-1.075 0.64-2.252 1.091-3.48 1.333-0.821-0.89-1.913-1.482-3.107-1.684s-2.42-0.002-3.488 0.568c-1.068 0.57-1.916 1.479-2.411 2.584s-0.611 2.342-0.327 3.519c-2.174-0.11-4.301-0.676-6.242-1.662s-3.653-2.368-5.025-4.058c-0.481 0.84-0.734 1.792-0.733 2.76-0.002 0.899 0.219 1.785 0.642 2.578s1.036 1.47 1.784 1.969c-0.869-0.024-1.72-0.257-2.48-0.68v0.067c0.007 1.26 0.448 2.479 1.25 3.451s1.915 1.637 3.15 1.883c-0.476 0.145-0.97 0.221-1.467 0.227-0.344-0.004-0.687-0.035-1.027-0.093 0.352 1.084 1.033 2.031 1.948 2.709s2.019 1.055 3.159 1.077c-1.924 1.514-4.299 2.34-6.747 2.347-0.446 0.001-0.891-0.025-1.333-0.080 2.499 1.614 5.412 2.47 8.387 2.467 2.053 0.021 4.089-0.367 5.991-1.141s3.629-1.92 5.083-3.37c1.454-1.45 2.604-3.175 3.383-5.074s1.173-3.935 1.157-5.988c0-0.227 0-0.467 0-0.707 1.046-0.78 1.949-1.737 2.667-2.827z"></path>
</symbol>
<symbol id="user" viewBox="0 0 32 32">
<path d="M26.828 23.862c-0.59-1.396-1.445-2.665-2.519-3.734-1.070-1.073-2.339-1.928-3.734-2.519-0.013-0.006-0.025-0.009-0.038-0.016 1.947-1.406 3.212-3.697 3.212-6.281 0-4.281-3.469-7.75-7.75-7.75s-7.75 3.469-7.75 7.75c0 2.584 1.266 4.875 3.212 6.284-0.012 0.006-0.025 0.009-0.038 0.016-1.4 0.591-2.656 1.438-3.734 2.519-1.073 1.070-1.928 2.339-2.519 3.734-0.58 1.366-0.893 2.831-0.922 4.316-0.001 0.033 0.005 0.066 0.017 0.098s0.030 0.059 0.054 0.083c0.023 0.024 0.051 0.043 0.082 0.056s0.064 0.020 0.097 0.020h1.875c0.138 0 0.247-0.109 0.25-0.244 0.063-2.412 1.031-4.672 2.744-6.384 1.772-1.772 4.125-2.747 6.631-2.747s4.859 0.975 6.631 2.747c1.712 1.712 2.681 3.972 2.744 6.384 0.003 0.138 0.112 0.244 0.25 0.244h1.875c0.033 0 0.066-0.007 0.097-0.020s0.059-0.032 0.082-0.056c0.023-0.024 0.042-0.052 0.054-0.083s0.018-0.064 0.017-0.098c-0.031-1.494-0.341-2.947-0.922-4.319zM16 16.688c-1.434 0-2.784-0.559-3.8-1.575s-1.575-2.366-1.575-3.8c0-1.434 0.559-2.784 1.575-3.8s2.366-1.575 3.8-1.575 2.784 0.559 3.8 1.575c1.016 1.016 1.575 2.366 1.575 3.8s-0.559 2.784-1.575 3.8c-1.016 1.016-2.366 1.575-3.8 1.575z"></path>
</symbol>
<symbol id="youtube" viewBox="0 0 32 32">
<path d="M30.667 12.947c0.066-1.908-0.351-3.803-1.213-5.507-0.585-0.699-1.396-1.171-2.293-1.333-3.71-0.337-7.435-0.475-11.16-0.413-3.711-0.064-7.423 0.069-11.12 0.4-0.731 0.133-1.407 0.476-1.947 0.987-1.2 1.107-1.333 3-1.467 4.6-0.193 2.877-0.193 5.763 0 8.64 0.039 0.901 0.173 1.794 0.4 2.667 0.161 0.673 0.486 1.296 0.947 1.813 0.543 0.538 1.235 0.9 1.987 1.040 2.875 0.355 5.771 0.502 8.667 0.44 4.667 0.067 8.76 0 13.6-0.373 0.77-0.131 1.482-0.494 2.040-1.040 0.373-0.373 0.652-0.831 0.813-1.333 0.477-1.463 0.711-2.995 0.693-4.533 0.053-0.747 0.053-5.253 0.053-6.053zM12.987 19.8v-8.253l7.893 4.147c-2.213 1.227-5.133 2.613-7.893 4.107z"></path>
</symbol>
</defs>
</svg>
